PathFileType   4   (X/Y/Z)
DataRate	CameraRate	NumFrames	NumMarkers	Units	OrigDataRate	OrigDataStartFrame	OrigNumFrames
120.0	120.0	12	37	mm	120.0	45	118
Frame#	Time	midhip	hip_r	hip_l	knee_r	knee_l	ankle_r	ankle_l	midasis	asis_r	asis_l	psis_r	psis_l	epicondLat_r	epicondLat_l	epicondMed_r	epicondMed_l	malleolusLat_r	malleolusLat_l	malleolusMedv_r	malleolusMedv_l	neck	subclavicle_r	subclavicle_l	sternalnotch	xyphoidprocess	thighwand_r	thighwand_l	upperleg1_r	upperleg1_l	upperleg2_r	upperleg2_l	shankwand_r	shankwand_l	lowerleg1_r	lowerleg1_l	toe_r	toe_l
 	 	X1	Y1	Z1	X2	Y2	Z2	X3	Y3	Z3	X4	Y4	Z4	X5	Y5	Z5	X6	Y6	Z6	X7	Y7	Z7	X8	Y8	Z8	X9	Y9	Z9	X10	Y10	Z10	X11	Y11	Z11	X12	Y12	Z12	X13	Y13	Z13	X14	Y14	Z14	X15	Y15	Z15	X16	Y16	Z16	X17	Y17	Z17	X18	Y18	Z18	X19	Y19	Z19	X20	Y20	Z20	X21	Y21	Z21	X22	Y22	Z22	X23	Y23	Z23	X24	Y24	Z24	X25	Y25	Z25	X26	Y26	Z26	X27	Y27	Z27	X28	Y28	Z28	X29	Y29	Z29	X30	Y30	Z30	X31	Y31	Z31	X32	Y32	Z32	X33	Y33	Z33	X34	Y34	Z34	X35	Y35	Z35	X36	Y36	Z36	X37	Y37	Z37

	45	0.49167	1527.500	875.276	-201.011	1514.127	850.295	-135.883	1528.553	854.747	-285.553	1441.253	455.744	-138.163	1695.983	460.560	-281.088	1293.982	75.565	-161.125	1841.020	92.244	-273.217	1605.912	940.542	-199.949	1594.346	936.973	-79.952	1617.478	944.111	-319.946	1417.617	979.083	-183.662	1430.664	975.310	-268.027	1452.524	453.331	-80.810	1699.347	461.333	-338.985	1427.277	463.843	-190.299	1684.960	449.630	-221.858	1286.151	76.230	-121.905	1821.043	83.686	-305.601	1303.759	87.708	-190.537	1844.757	110.098	-247.667	1427.092	1407.144	-177.942	1555.450	1327.482	-134.576	1559.154	1334.252	-240.037	1540.333	1339.008	-184.325	1619.791	1174.850	-203.982	1520.887	547.978	-6.665	1793.049	604.024	-287.538	1535.832	615.562	-68.833	1706.582	621.821	-328.198	1522.054	532.705	-96.533	1721.705	535.710	-320.237	1360.577	185.390	-30.953	1782.645	218.120	-394.112	1331.654	164.320	-104.634	1790.805	181.748	-323.202	1410.219	39.396	-139.526	1961.718	96.942	-289.718
	46	0.50000	1536.280	872.451	-201.251	1523.319	848.574	-135.919	1538.695	852.592	-285.507	1449.070	454.507	-138.834	1706.381	459.092	-280.921	1294.844	76.865	-161.368	1856.609	92.572	-272.301	1615.554	938.592	-199.658	1603.203	935.365	-79.501	1627.905	941.820	-319.815	1427.220	977.207	-184.909	1440.951	973.297	-269.179	1459.799	452.060	-81.378	1709.844	459.893	-338.812	1436.177	462.467	-191.192	1695.997	448.272	-221.199	1286.917	77.764	-122.172	1836.738	83.667	-304.656	1304.676	88.737	-190.884	1860.281	110.999	-246.762	1437.973	1405.655	-178.554	1565.713	1325.561	-134.598	1569.654	1332.223	-240.641	1550.844	1337.158	-184.909	1629.504	1172.577	-203.997	1527.839	546.599	-6.609	1802.967	602.981	-287.142	1544.077	613.953	-68.657	1716.269	620.134	-328.136	1530.088	530.873	-96.369	1732.120	534.435	-319.844	1363.117	185.827	-31.220	1796.436	217.368	-393.497	1333.943	165.326	-104.866	1804.944	181.376	-322.327	1410.446	39.466	-139.633	1977.559	98.490	-288.277
	47	0.50833	1545.273	869.900	-201.393	1532.748	846.904	-136.006	1548.946	850.606	-285.515	1456.990	453.297	-139.459	1717.117	457.803	-280.712	1295.726	78.378	-161.508	1870.422	92.397	-271.375	1625.376	936.747	-199.424	1612.344	933.769	-79.140	1638.408	939.724	-319.709	1436.922	975.429	-186.022	1451.294	971.458	-270.282	1467.209	450.826	-81.911	1720.718	458.637	-338.594	1444.419	462.253	-192.426	1708.673	447.373	-220.732	1287.703	79.525	-122.337	1850.600	83.255	-303.694	1305.134	90.246	-191.022	1874.386	110.885	-245.884	1448.777	1404.222	-179.234	1575.987	1323.434	-135.064	1580.495	1330.637	-241.257	1561.419	1335.410	-185.487	1639.563	1170.577	-205.029	1534.991	545.264	-6.602	1813.295	602.455	-286.645	1552.277	612.623	-67.793	1726.208	618.997	-328.279	1537.804	528.995	-96.404	1743.585	533.953	-319.586	1365.689	186.486	-31.423	1809.144	216.391	-392.815	1336.552	166.246	-105.515	1817.618	181.246	-321.162	1410.733	39.548	-139.739	1991.492	98.997	-286.943
	48	0.51667	1554.817	867.867	-201.642	1542.430	845.314	-136.189	1559.320	848.835	-285.625	1464.950	452.123	-140.024	1728.174	456.705	-280.439	1296.659	80.106	-161.514	1882.484	91.662	-270.459	1635.388	935.044	-199.282	1621.782	932.207	-78.902	1648.995	937.880	-319.662	1446.787	973.775	-187.010	1461.723	969.824	-271.327	1474.725	449.635	-82.400	1731.954	457.567	-338.310	1452.617	461.567	-193.144	1718.648	447.158	-221.019	1288.537	81.520	-122.373	1862.674	82.405	-302.753	1305.796	92.072	-191.031	1886.683	110.376	-245.235	1459.234	1402.776	-180.056	1586.446	1321.655	-135.977	1591.424	1329.122	-241.567	1572.058	1333.805	-186.074	1650.224	1168.935	-205.809	1542.379	543.974	-6.659	1824.009	602.387	-286.039	1560.356	611.419	-67.313	1737.961	619.123	-328.145	1545.584	527.364	-96.404	1754.920	533.459	-319.393	1368.288	187.379	-31.559	1820.844	215.229	-392.084	1339.058	167.276	-105.927	1829.229	180.278	-320.152	1411.083	39.641	-139.820	2003.549	98.398	-285.689
	49	0.52500	1564.966	866.390	-202.177	1552.394	843.819	-136.503	1569.826	847.314	-285.878	1472.913	450.997	-140.515	1739.501	455.814	-280.084	1297.700	82.046	-161.367	1892.838	90.362	-269.550	1645.616	933.504	-199.271	1631.560	930.686	-78.825	1659.672	936.322	-319.718	1456.878	972.273	-187.892	1472.270	968.419	-272.311	1482.325	448.503	-82.831	1743.502	456.692	-337.939	1461.185	460.152	-193.830	1728.989	446.585	-221.889	1289.469	83.745	-122.259	1873.029	81.119	-301.848	1307.373	93.902	-190.876	1896.468	109.107	-244.377	1469.770	1401.631	-180.916	1597.253	1320.194	-136.580	1602.109	1327.655	-242.031	1582.759	1332.368	-186.722	1660.827	1167.424	-206.426	1550.031	542.745	-6.775	1835.060	602.691	-285.322	1568.662	610.064	-67.723	1749.910	619.515	-327.408	1553.733	525.828	-96.694	1766.318	533.355	-319.310	1370.915	188.520	-31.615	1831.635	213.927	-391.318	1340.846	168.586	-105.825	1840.041	178.517	-319.503	1411.492	39.743	-139.846	2013.808	96.683	-284.480
	50	0.53333	1575.368	865.066	-203.031	1562.617	842.438	-136.994	1580.462	846.064	-286.317	1480.875	449.932	-140.915	1751.018	455.143	-279.633	1298.923	84.196	-161.053	1901.587	88.549	-268.638	1656.051	932.139	-199.422	1641.651	929.213	-78.925	1670.451	935.065	-319.918	1467.241	970.948	-188.683	1482.960	967.263	-273.228	1490.019	447.451	-83.188	1755.284	456.015	-337.470	1469.696	458.682	-194.257	1741.453	446.492	-221.844	1290.563	86.204	-121.988	1881.790	79.448	-300.984	1309.442	95.749	-190.565	1904.461	106.604	-243.415	1480.800	1400.395	-181.823	1608.209	1318.959	-136.828	1612.644	1326.207	-242.998	1593.488	1331.099	-187.484	1671.347	1165.982	-206.918	1557.975	541.596	-6.930	1846.382	603.265	-284.498	1577.204	608.522	-68.338	1761.053	619.669	-327.032	1562.087	524.517	-96.907	1778.266	533.879	-319.004	1373.590	189.928	-31.566	1841.625	212.532	-390.527	1343.364	170.535	-105.481	1849.774	176.970	-318.832	1411.952	39.854	-139.792	2022.402	93.896	-283.283
	51	0.54167	1586.317	864.174	-204.017	1573.103	841.183	-137.679	1591.235	845.094	-286.960	1488.877	448.945	-141.213	1762.635	454.694	-279.095	1300.403	86.566	-160.573	1908.885	86.338	-267.719	1666.710	930.951	-199.750	1652.068	927.792	-79.209	1681.351	934.110	-320.291	1477.892	969.825	-189.399	1493.812	966.367	-274.068	1497.843	446.500	-83.456	1767.208	455.537	-336.908	1478.399	457.192	-194.393	1753.490	446.851	-221.484	1291.881	88.914	-121.562	1889.131	77.493	-300.161	1311.305	97.903	-190.027	1911.211	103.691	-242.422	1491.529	1399.100	-183.046	1619.073	1318.033	-137.665	1623.502	1325.126	-243.934	1604.221	1329.995	-188.361	1682.567	1165.091	-207.548	1566.241	540.554	-7.094	1857.895	603.998	-283.576	1585.833	607.019	-68.840	1772.550	620.037	-326.976	1570.683	523.463	-96.921	1790.407	534.143	-318.572	1376.346	191.627	-31.374	1850.930	211.101	-389.722	1346.205	172.836	-105.022	1858.341	175.490	-317.815	1412.457	39.975	-139.651	2029.533	90.136	-282.067
	52	0.55000	1597.238	863.196	-205.116	1583.833	840.072	-138.562	1602.143	844.405	-287.810	1496.999	448.054	-141.395	1774.243	454.459	-278.500	1302.196	89.183	-159.937	1914.962	83.890	-266.795	1677.591	929.940	-200.260	1662.796	926.439	-79.673	1692.385	933.441	-320.847	1488.822	968.930	-190.058	1504.843	965.742	-274.815	1505.866	445.672	-83.620	1779.169	455.254	-336.285	1486.617	456.515	-194.727	1765.801	447.255	-221.121	1293.475	91.904	-120.994	1895.295	75.392	-299.383	1312.814	100.311	-189.381	1916.523	100.770	-241.376	1501.897	1398.130	-184.380	1629.822	1317.325	-138.978	1634.324	1324.272	-244.720	1614.958	1329.064	-189.331	1693.767	1164.447	-208.353	1574.858	539.642	-7.231	1869.512	604.790	-282.571	1594.504	605.760	-68.995	1784.595	620.522	-326.876	1579.137	522.441	-97.158	1803.091	534.377	-318.032	1379.237	193.656	-31.003	1859.678	209.700	-388.918	1348.435	174.853	-104.569	1865.689	173.150	-317.097	1413.000	40.109	-139.433	2035.460	85.560	-280.794
	53	0.55833	1608.235	862.300	-206.208	1594.811	839.122	-139.616	1613.177	843.992	-288.841	1505.361	447.267	-141.452	1785.738	454.429	-277.902	1304.343	92.074	-159.160	1920.067	81.395	-265.881	1688.702	929.103	-200.947	1673.854	925.167	-80.309	1703.549	933.040	-321.584	1500.010	968.282	-190.675	1516.057	965.399	-275.461	1514.181	444.983	-83.666	1791.060	455.165	-335.653	1494.895	455.202	-194.510	1778.069	448.836	-219.596	1295.384	95.207	-120.302	1900.548	73.310	-298.663	1314.677	103.006	-188.723	1920.542	97.678	-240.246	1512.733	1397.316	-185.482	1640.358	1316.652	-140.317	1644.848	1323.186	-245.817	1625.714	1328.331	-190.406	1704.069	1163.419	-208.999	1583.855	538.881	-7.308	1881.147	605.567	-281.506	1603.725	604.778	-69.417	1797.076	621.304	-326.782	1587.788	520.743	-97.438	1816.024	535.157	-316.870	1382.333	196.055	-30.425	1868.017	208.407	-388.139	1352.024	176.937	-104.026	1871.897	170.800	-316.454	1413.585	40.256	-139.160	2040.473	80.379	-279.409
	54	0.56667	1622.053	864.397	-206.732	1606.017	838.355	-140.807	1624.316	843.851	-290.018	1514.096	446.582	-141.373	1797.023	454.592	-277.370	1306.884	95.278	-158.254	1924.493	79.040	-265.005	1700.029	928.447	-201.788	1685.228	924.001	-81.098	1714.830	932.892	-322.478	1511.424	967.903	-191.258	1527.432	965.349	-276.012	1522.899	444.433	-83.579	1802.788	455.275	-335.079	1503.973	453.579	-193.803	1788.878	450.057	-218.665	1297.648	98.864	-119.501	1905.196	71.403	-298.025	1317.457	105.953	-187.769	1923.812	94.414	-238.930	1523.685	1396.794	-186.710	1650.854	1315.805	-141.654	1655.696	1322.566	-246.962	1636.501	1327.815	-191.596	1714.406	1162.572	-210.410	1593.260	538.283	-7.301	1892.720	606.289	-280.403	1613.525	603.994	-69.919	1809.634	621.985	-326.364	1597.090	519.278	-97.357	1828.155	535.847	-315.900	1385.712	198.866	-29.637	1876.110	207.302	-387.413	1356.483	179.806	-103.412	1877.436	169.037	-315.534	1414.227	40.414	-138.857	2044.854	74.848	-277.868
	55	0.57500	1633.924	864.622	-207.546	1617.451	837.792	-142.083	1635.549	843.987	-291.291	1523.346	445.995	-141.155	1808.025	454.942	-276.963	1309.854	98.843	-157.233	1928.461	76.973	-264.199	1711.567	927.985	-202.752	1696.921	922.972	-82.017	1726.212	932.998	-323.487	1523.034	967.806	-191.817	1538.926	965.608	-276.486	1532.141	444.020	-83.354	1814.276	455.590	-334.622	1514.172	453.182	-194.023	1799.912	450.066	-218.584	1300.311	102.923	-118.603	1909.479	69.800	-297.504	1320.429	109.125	-186.579	1926.742	90.937	-237.470	1534.351	1396.218	-188.085	1661.520	1315.286	-142.512	1666.882	1322.460	-247.924	1647.302	1327.527	-192.877	1725.752	1162.452	-211.595	1603.118	537.856	-7.195	1904.161	606.954	-279.280	1623.640	603.273	-69.800	1821.814	622.209	-325.368	1607.129	518.743	-97.241	1839.928	536.377	-315.243	1389.464	202.119	-28.659	1884.120	206.451	-386.766	1359.684	183.329	-102.755	1883.030	167.494	-314.560	1414.954	40.574	-138.551	2048.830	69.250	-276.163
	56	0.58333	1645.913	865.101	-208.533	1629.074	837.462	-143.416	1646.862	844.413	-292.628	1533.237	445.502	-140.794	1818.698	455.488	-276.721	1313.310	102.808	-156.110	1932.090	75.277	-263.481	1723.279	927.748	-203.808	1708.883	922.123	-83.046	1737.676	933.374	-324.570	1534.816	968.005	-192.365	1550.488	966.189	-276.907	1542.024	443.740	-82.985	1825.477	456.128	-334.320	1525.239	452.274	-194.182	1811.343	450.437	-217.882	1303.436	107.425	-117.624	1913.539	68.573	-297.124	1323.618	112.723	-185.404	1931.274	90.184	-236.746	1544.765	1395.457	-189.267	1672.482	1315.707	-143.539	1677.982	1322.411	-249.291	1658.135	1327.532	-194.208	1737.949	1163.011	-211.905	1613.491	537.611	-6.977	1915.423	607.592	-278.155	1634.080	602.479	-69.743	1833.560	622.558	-324.378	1617.758	518.131	-97.045	1851.626	537.032	-314.318	1393.684	205.832	-27.536	1892.168	205.894	-386.212	1363.207	187.003	-101.522	1889.590	166.648	-313.580	1415.802	40.719	-138.266	2052.541	63.875	-274.344
